<?xml version="1.0" encoding="UTF-8" standalone="no"?>
<!-- Created with Inkscape (http://www.inkscape.org/) -->

<svg
   width="37.746788mm"
   height="4.86834mm"
   viewBox="0 0 37.746788 4.86834"
   version="1.1"
   id="svg1"
   xml:space="preserve"
   inkscape:version="1.4.2 (f4327f4, 2025-05-13)"
   sodipodi:docname="Mail.svg"
   xmlns:inkscape="http://www.inkscape.org/namespaces/inkscape"
   xmlns:sodipodi="http://sodipodi.sourceforge.net/DTD/sodipodi-0.dtd"
   xmlns="http://www.w3.org/2000/svg"
   xmlns:svg="http://www.w3.org/2000/svg"><sodipodi:namedview
     id="namedview1"
     pagecolor="#ffffff"
     bordercolor="#000000"
     borderopacity="0.25"
     inkscape:showpageshadow="2"
     inkscape:pageopacity="0.0"
     inkscape:pagecheckerboard="0"
     inkscape:deskcolor="#d1d1d1"
     inkscape:document-units="mm"
     inkscape:zoom="2.8284271"
     inkscape:cx="196.57569"
     inkscape:cy="258.62431"
     inkscape:window-width="1920"
     inkscape:window-height="1009"
     inkscape:window-x="-8"
     inkscape:window-y="-8"
     inkscape:window-maximized="1"
     inkscape:current-layer="svg1"><inkscape:page
       x="0"
       y="0"
       width="37.746788"
       height="4.86834"
       id="page5"
       margin="0"
       bleed="0" /></sodipodi:namedview><defs
     id="defs1" /><text
     xml:space="preserve"
     style="font-size:4.79052px;line-height:4.7528px;font-family:Quintessential;-inkscape-font-specification:Quintessential;text-align:start;letter-spacing:0.449113px;word-spacing:1.79645px;writing-mode:lr-tb;direction:ltr;text-anchor:start;fill:#cccccc;fill-opacity:1;stroke:#cccccc;stroke-width:0.0023764;stroke-linecap:square;stroke-miterlimit:1;stroke-dasharray:none;stroke-opacity:1"
     x="7.0299506"
     y="3.7779112"
     id="text2-6-6"
     inkscape:export-filename="Mail.png"
     inkscape:export-xdpi="96"
     inkscape:export-ydpi="96"><tspan
       sodipodi:role="line"
       id="tspan2-14-1"
       style="font-style:normal;font-variant:normal;font-weight:bold;font-stretch:normal;font-family:Raleway;-inkscape-font-specification:'Raleway Bold';fill:#cccccc;fill-opacity:1;stroke:#cccccc;stroke-width:0.0023764;stroke-dasharray:none;stroke-opacity:1"
       x="7.0299506"
       y="3.7779112">3816529221</tspan></text><path
     d="M 2.6458316,2.2225055 V 0.63500551 h 0.52916 V 1.3229225 L 4.4979116,5.5128812e-6 4.8683316,0.37042251 3.5454116,1.6933385 h 0.68792 v 0.529167 z m 1.83885,2.645834 q -0.82682,0 -1.6338,-0.360495 -0.80698,-0.360495 -1.46844,-1.021953 Q 0.72098158,2.8244325 0.36049158,2.0174535 -8.4180747e-6,1.2104745 -8.4180747e-6,0.38365151 q 0,-0.119063 0.079399998075,-0.198438 0.0794,-0.07937 0.19843,-0.07937 H 1.3493916 q 0.0926,0 0.16536,0.06284 0.0728,0.06284 0.086,0.148828 l 0.17198,0.92604199 q 0.0132,0.105833 -0.007,0.178594 -0.0198,0.07276 -0.0728,0.125677 l -0.64162,0.648229 q 0.13229,0.24474 0.31419,0.472943 0.1819,0.228203 0.40019,0.43987 0.20505,0.205052 0.42994,0.380338 0.2249,0.175287 0.47625,0.320808 l 0.62177,-0.621771 q 0.0595,-0.05953 0.15545,-0.0893 0.0959,-0.02977 0.18851,-0.01654 l 0.91282,0.185208 q 0.0926,0.02646 0.15213,0.09591 0.0595,0.06945 0.0595,0.155443 v 1.071562 q 0,0.119063 -0.0794,0.198438 -0.0794,0.07937 -0.19844,0.07937 z M 0.80036158,1.6933385 1.2369216,1.2567765 1.1244716,0.63500551 H 0.53577158 q 0.0331,0.271198 0.0926,0.53578099 0.0595,0.264584 0.17198,0.522552 z m 2.36802002,2.368021 q 0.25797,0.112448 0.52586,0.178594 0.26789,0.06615 0.53909,0.08599 v -0.582083 l -0.62178,-0.125677 z M 0.80036158,1.6933385 Z m 2.36802002,2.368021 z"
     id="path1"
     style="fill:#cccccc;fill-opacity:1;stroke:none;stroke-width:0.00661458;stroke-opacity:1" /></svg>
