<?xml version="1.0" encoding="UTF-8" standalone="no"?>
<!-- Uploaded to: SVG Repo, www.svgrepo.com, Generator: SVG Repo Mixer Tools -->

<svg
   width="800px"
   height="800px"
   viewBox="0 0 32 32"
   id="svg5"
   version="1.1"
   sodipodi:docname="complain-user-ui-svgrepo-com.svg"
   inkscape:version="1.4.2 (f4327f4, 2025-05-13)"
   xmlns:inkscape="http://www.inkscape.org/namespaces/inkscape"
   xmlns:sodipodi="http://sodipodi.sourceforge.net/DTD/sodipodi-0.dtd"
   xmlns="http://www.w3.org/2000/svg"
   xmlns:svg="http://www.w3.org/2000/svg">
  <sodipodi:namedview
     id="namedview1"
     pagecolor="#ffffff"
     bordercolor="#000000"
     borderopacity="0.25"
     inkscape:showpageshadow="2"
     inkscape:pageopacity="0.0"
     inkscape:pagecheckerboard="0"
     inkscape:deskcolor="#d1d1d1"
     inkscape:zoom="0.3663697"
     inkscape:cx="474.9301"
     inkscape:cy="1033.1094"
     inkscape:window-width="1920"
     inkscape:window-height="1009"
     inkscape:window-x="-8"
     inkscape:window-y="-8"
     inkscape:window-maximized="1"
     inkscape:current-layer="svg5" />
  <defs
     id="defs2" />
  <g
     id="layer1"
     transform="translate(-108,-388)"
     style="stroke:#ffffff;stroke-opacity:1;stroke-width:0;stroke-dasharray:none">
    <path
       d="m 115,408.01367 c -2.7527,0 -5,2.2473 -5,5 0,2.7527 2.2473,5 5,5 h 14 c 2.7527,0 5,-2.2473 5,-5 0,-2.7527 -2.2473,-5 -5,-5 z m 0,2 h 14 c 1.6793,0 3,1.32071 3,3 0,1.6793 -1.3207,3 -3,3 h -14 c -1.6793,0 -3,-1.3207 -3,-3 0,-1.67929 1.3207,-3 3,-3 z"
       id="path453585"
       style="color:#000000;fill:#ffffff;fill-rule:evenodd;stroke-linecap:round;stroke-linejoin:round;stroke-miterlimit:4.1;stroke:#ffffff;stroke-opacity:1;stroke-width:0;stroke-dasharray:none" />
    <path
       d="m 131,399.01367 a 1,1 0 0 0 -1,1 1,1 0 0 0 1,1 1,1 0 0 0 1,-1 1,1 0 0 0 -1,-1 z"
       id="path453573"
       style="color:#000000;fill:#ffffff;fill-rule:evenodd;stroke-linecap:round;stroke-linejoin:round;stroke-miterlimit:4.1;stroke:#ffffff;stroke-opacity:1;stroke-width:0;stroke-dasharray:none" />
    <path
       d="m 131,393.01367 a 1,1 0 0 0 -1,1 v 3 a 1,1 0 0 0 1,1 1,1 0 0 0 1,-1 v -3 a 1,1 0 0 0 -1,-1 z"
       id="path453567"
       style="color:#000000;fill:#ffffff;fill-rule:evenodd;stroke-linecap:round;stroke-linejoin:round;stroke-miterlimit:4.1;stroke:#ffffff;stroke-opacity:1;stroke-width:0;stroke-dasharray:none" />
    <path
       d="m 131,390.01367 c -2.63036,0 -4.9293,1.46542 -6.125,3.6211 -0.90021,-0.4054 -1.87895,-0.62123 -2.875,-0.6211 -3.85415,0 -7,3.14586 -7,7 0,3.85415 3.14585,7 7,7 a 1.000105,1.000105 0 0 0 0.002,0 c 2.57139,-0.007 4.90293,-1.42397 6.11524,-3.625 0.88031,0.40064 1.85579,0.625 2.88281,0.625 3.85414,0 7,-3.14585 7,-7 0,-3.85413 -3.14586,-7 -7,-7 z m 0,2 c 2.77327,0 5,2.22674 5,5 0,2.77327 -2.22673,5 -5,5 -0.98421,0 -1.89849,-0.28178 -2.66992,-0.76758 a 1.000005,1.000005 0 0 0 -0.2461,-0.16601 C 126.82049,400.17503 126,398.69579 126,397.01367 c 0,-0.5237 0.081,-1.02855 0.22852,-1.50195 a 1.000005,1.000005 0 0 0 0.10546,-0.30078 c 0.71945,-1.87506 2.52941,-3.19727 4.66602,-3.19727 z m -9,3 c 0.75319,-10e-5 1.49281,0.17045 2.16602,0.49414 -0.10719,0.48532 -0.16602,0.98922 -0.16602,1.50586 0,2.1085 0.94381,4.00364 2.42773,5.28906 -0.84495,1.64398 -2.53896,2.70503 -4.42773,2.71094 -2.77326,0 -5,-2.22673 -5,-5 0,-2.77326 2.22674,-5 5,-5 z"
       id="path453555"
       style="color:#000000;fill:#ffffff;fill-rule:evenodd;stroke-linecap:round;stroke-linejoin:round;stroke-miterlimit:4.1;stroke:#ffffff;stroke-opacity:1;stroke-width:0;stroke-dasharray:none" />
  </g>
</svg>
