<?xml version="1.0" encoding="UTF-8" standalone="no"?>
<!-- Uploaded to: SVG Repo, www.svgrepo.com, Generator: SVG Repo Mixer Tools -->

<svg
   width="800px"
   height="800px"
   viewBox="0 0 24 24"
   version="1.1"
   id="svg2"
   sodipodi:docname="plant.svg"
   inkscape:version="1.4.2 (f4327f4, 2025-05-13)"
   xmlns:inkscape="http://www.inkscape.org/namespaces/inkscape"
   xmlns:sodipodi="http://sodipodi.sourceforge.net/DTD/sodipodi-0.dtd"
   xmlns="http://www.w3.org/2000/svg"
   xmlns:svg="http://www.w3.org/2000/svg">
  <defs
     id="defs2" />
  <sodipodi:namedview
     id="namedview2"
     pagecolor="#ffffff"
     bordercolor="#000000"
     borderopacity="0.25"
     inkscape:showpageshadow="2"
     inkscape:pageopacity="0.0"
     inkscape:pagecheckerboard="0"
     inkscape:deskcolor="#d1d1d1"
     inkscape:zoom="0.518125"
     inkscape:cx="301.08565"
     inkscape:cy="689.98794"
     inkscape:window-width="1920"
     inkscape:window-height="1009"
     inkscape:window-x="-8"
     inkscape:window-y="-8"
     inkscape:window-maximized="1"
     inkscape:current-layer="svg2" />
  <g
     id="g2">
    <path
       fill="none"
       d="M0 0H24V24H0z"
       id="path1" />
    <path
       d="M21 3v2c0 3.866-3.134 7-7 7h-1v1h5v7c0 1.105-.895 2-2 2H8c-1.105 0-2-.895-2-2v-7h5v-3c0-3.866 3.134-7 7-7h3zM5.5 2c2.529 0 4.765 1.251 6.124 3.169C10.604 6.51 10 8.185 10 10v1h-.5C5.358 11 2 7.642 2 3.5V2h3.5z"
       id="path2"
       style="fill:#ffffff" />
  </g>
</svg>
