<?xml version="1.0" encoding="UTF-8" standalone="no"?>
<!-- Created with Inkscape (http://www.inkscape.org/) -->

<svg
   width="186.51291"
   height="753.03589"
   viewBox="0 0 49.348204 199.24073"
   version="1.1"
   id="svg1"
   inkscape:version="1.4.2 (f4327f4, 2025-05-13)"
   sodipodi:docname="spoon.svg"
   inkscape:export-filename="Logo.png"
   inkscape:export-xdpi="96"
   inkscape:export-ydpi="96"
   xml:space="preserve"
   xmlns:inkscape="http://www.inkscape.org/namespaces/inkscape"
   xmlns:sodipodi="http://sodipodi.sourceforge.net/DTD/sodipodi-0.dtd"
   xmlns="http://www.w3.org/2000/svg"
   xmlns:svg="http://www.w3.org/2000/svg"><sodipodi:namedview
     id="namedview1"
     pagecolor="#ffffff"
     bordercolor="#000000"
     borderopacity="0.25"
     inkscape:showpageshadow="2"
     inkscape:pageopacity="0.0"
     inkscape:pagecheckerboard="0"
     inkscape:deskcolor="#d1d1d1"
     inkscape:document-units="px"
     inkscape:zoom="0.70710678"
     inkscape:cx="164.04877"
     inkscape:cy="211.42493"
     inkscape:window-width="1920"
     inkscape:window-height="1009"
     inkscape:window-x="-8"
     inkscape:window-y="-8"
     inkscape:window-maximized="1"
     inkscape:current-layer="layer1"
     showgrid="true"><inkscape:grid
       id="grid1"
       units="px"
       originx="-107.61753"
       originy="-12.311949"
       spacingx="2.6458333"
       spacingy="2.6458333"
       empcolor="#0099e5"
       empopacity="0.30196078"
       color="#0099e5"
       opacity="0.14901961"
       empspacing="5"
       dotted="false"
       gridanglex="30"
       gridanglez="30"
       visible="true"
       enabled="true" /><inkscape:page
       x="0"
       y="0"
       width="49.348206"
       height="199.24072"
       id="page2"
       margin="0"
       bleed="0" /></sodipodi:namedview><defs
     id="defs1"><inkscape:path-effect
       effect="spiro"
       id="path-effect1"
       is_visible="true"
       lpeversion="1" /><linearGradient
       id="swatch30"
       inkscape:swatch="solid"><stop
         style="stop-color:#586e26;stop-opacity:1;"
         offset="0"
         id="stop30" /></linearGradient></defs><g
     inkscape:label="Capa 1"
     inkscape:groupmode="layer"
     id="layer1"
     transform="translate(-107.61753,-12.311949)"><path
       style="display:inline;fill:#8b520c;fill-opacity:1;stroke:#8b520a;stroke-width:1.89624;stroke-linecap:square;stroke-dasharray:none;stroke-opacity:1"
       d="m 156.10416,150.8125 c -43.62053,0 6.7635,-56.062679 -17.049,-90.458511 -23.8125,-34.395833 -3.00891,-57.6606194 17.049,-57.7081556 20.08627,-0.047603 41.15933,23.3123226 17.34683,57.7081556 -23.8125,34.395832 26.27369,90.458511 -17.34683,90.458511 z"
       id="path2-4"
       sodipodi:nodetypes="zzazz" /><path
       style="fill:#8ba10c;fill-opacity:1;stroke:#8b520a;stroke-width:0.1;stroke-linecap:square;stroke-miterlimit:1"
       d="m 158.74999,7.9375 c -3.27771,-0.1894619 -6.58639,0.5704055 -9.52136,2.0418878 -2.93496,1.4714822 -5.4994,3.6411012 -7.55416,6.2018112 -4.10953,5.121422 -6.11793,11.677515 -6.73698,18.214634 -0.69242,7.311951 0.33139,14.971227 4.10574,21.271893 1.88717,3.150333 4.44727,5.917054 7.53687,7.902085 3.08961,1.985031 6.71376,3.170741 10.38564,3.228655 3.73053,0.05884 7.44762,-1.047979 10.63266,-2.991136 3.18504,-1.943157 5.84299,-4.703615 7.81672,-7.869798 3.94747,-6.332367 5.09513,-14.103352 4.50154,-21.541699 -0.49076,-6.14976 -2.17311,-12.33093 -5.75922,-17.350911 -1.79306,-2.50999 -4.05074,-4.702664 -6.68351,-6.310044 C 164.84117,9.1274988 161.8295,8.1155055 158.74999,7.9375 Z"
       id="path1"
       inkscape:path-effect="#path-effect1"
       inkscape:original-d="m 158.74999,7.9375 c -5.7154,-10.7597213 -17.60018,18.038706 -23.8125,26.458333 -6.21231,8.419628 22.73792,17.943939 22.02825,32.402633 -0.63838,13.006096 17.65925,-23.583188 22.95092,-32.402633 C 185.20832,25.57639 164.4654,18.697222 158.74999,7.9375 Z"
       sodipodi:nodetypes="scsss"
       transform="matrix(0.93486834,0,0,0.93486834,9.07231,-0.03719533)" /></g></svg>
